<svg xmlns="http://www.w3.org/2000/svg" xmlns:xlink="http://www.w3.org/1999/xlink" version="1.1" width="256" height="256" viewBox="0 0 256 256" xml:space="preserve">
   <defs>
   </defs>
   <g style="stroke: none; stroke-width: 0; stroke-dasharray: none; stroke-linecap: butt; stroke-linejoin: miter; stroke-miterlimit: 10; fill: none; fill-rule: nonzero; opacity: 1;" transform="translate(1.4065934065934016 1.4065934065934016) scale(2.81 2.81)">
      <circle cx="34.717" cy="35.307" r="19.817" style="stroke: none; stroke-width: 1; stroke-dasharray: none; stroke-linecap: butt; stroke-linejoin: miter; stroke-miterlimit: 10; fill: #EC6E4C; fill-rule: nonzero; opacity: 1;" transform="  matrix(1 0 0 1 0 0) " />
      <path d="M 42.869 37.202 c 0.799 -6.532 6.455 -11.579 13.087 -11.579 c 4.749 0 9.038 2.489 11.398 6.553 c 1.78 -1.822 4.203 -2.851 6.775 -2.851 c 4.815 0 8.875 3.661 9.416 8.406 C 87.423 39.216 90 42.937 90 47.112 c 0 5.543 -4.51 10.054 -10.054 10.054 H 44.536 c -5.543 0 -10.054 -4.51 -10.054 -10.054 C 34.482 42.18 38.054 38.004 42.869 37.202 z" style="stroke: none; stroke-width: 1; stroke-dasharray: none; stroke-linecap: butt; stroke-linejoin: miter; stroke-miterlimit: 10; fill: rgb(183,189,244); fill-rule: nonzero; opacity: 1;" transform=" matrix(1 0 0 1 0 0) " stroke-linecap="round" />
      <path d="M 62.119 48.202 C 61.066 39.593 53.612 32.94 44.87 32.94 c -6.259 0 -11.912 3.28 -15.022 8.637 c -2.346 -2.402 -5.539 -3.758 -8.929 -3.758 c -6.347 0 -11.698 4.825 -12.411 11.079 C 3.397 50.857 0 55.76 0 61.263 c 0 7.306 5.944 13.251 13.251 13.251 h 46.672 c 7.306 0 13.251 -5.945 13.251 -13.251 C 73.173 54.763 68.466 49.259 62.119 48.202 z" style="stroke: none; stroke-width: 1; stroke-dasharray: none; stroke-linecap: butt; stroke-linejoin: miter; stroke-miterlimit: 10; fill: rgb(131,141,229); fill-rule: nonzero; opacity: 1;" transform=" matrix(1 0 0 1 0 0) " stroke-linecap="round" />
   </g>
</svg>